<?xml version="1.0" encoding="UTF-8" standalone="no"?>
<svg width="178px" height="46px" viewBox="0 0 178 46" version="1.1" xmlns="http://www.w3.org/2000/svg" xmlns:xlink="http://www.w3.org/1999/xlink">
    <!-- Generator: Sketch 41.2 (35397) - http://www.bohemiancoding.com/sketch -->
    <title>city72logo</title>
    <desc>Created with Sketch.</desc>
    <defs></defs>
    <g id="Page-1" stroke="none" stroke-width="1" fill="none" fill-rule="evenodd">
        <g id="logos" transform="translate(-61.000000, -49.000000)">
            <g id="city72logo" transform="translate(61.000000, 49.000000)">
                <path d="M23.7266233,32.0547368 C22.0963669,28.4231579 20.2263669,24.84 18.164572,21.3052632 C21.6648284,19.8526316 23.6786745,16.8021053 23.6786745,12.7831579 L23.6786745,10.8947368 C23.6786745,4.6 19.9386745,1.01684211 12.554572,1.01684211 L3.49226429,1.01684211 C1.67021301,1.01684211 0.23175147,2.51789474 0.23175147,4.35789474 L0.23175147,33.4105263 C0.23175147,35.2505263 1.67021301,36.7515789 3.49226429,36.7515789 C5.36226429,36.7515789 6.80072583,35.2505263 6.80072583,33.4105263 L6.80072583,22.5642105 L11.2599566,22.5642105 C13.6573925,26.5831579 15.8630335,30.6505263 17.6850848,34.7178947 C18.4043156,36.2673684 19.4591874,36.7515789 20.5620079,36.7515789 C22.7197002,36.7515789 24.9253412,34.6694737 23.7266233,32.0547368 Z M17.0617515,12.7831579 C17.0617515,15.3010526 14.9520079,16.5115789 12.218931,16.5115789 L6.80072583,16.5115789 L6.80072583,7.26315789 L12.4107258,7.26315789 C15.4314951,7.26315789 17.0617515,8.52210526 17.0617515,10.8947368 L17.0617515,12.7831579 Z M48.4500423,23.4357895 L48.4500423,21.3536842 C48.4500423,15.7368421 45.7169653,10.8463158 38.4287602,10.8463158 C31.4282474,10.8463158 28.3115807,15.8336842 28.3115807,21.4989474 L28.3115807,26.0021053 C28.3115807,31.6673684 30.9487602,36.6063158 38.3808115,36.6063158 C40.68235,36.6063158 43.2715807,36.2673684 45.9087602,35.0568421 C47.1074782,34.5242105 47.6828628,33.3136842 47.2513243,31.8610526 C46.8677346,30.4568421 45.429273,29.6821053 44.1346576,30.2147368 C42.4564525,30.8926316 41.1618371,31.28 38.7644012,31.28 C36.079273,31.28 34.7846576,29.5852632 34.7846576,26.68 L34.7846576,25.76 L46.2444012,25.76 C47.4431192,25.76 48.4500423,24.7431579 48.4500423,23.4357895 Z M42.2167089,20.24 L42.2167089,20.8694737 L34.7846576,20.8694737 L34.7846576,20.24 C34.7846576,17.48 36.0313243,15.9305263 38.5726064,15.9305263 C41.1138884,15.9305263 42.2167089,17.48 42.2167089,20.24 Z M74.228333,33.9431579 C74.228333,33.0231579 73.7967946,32.4421053 73.3173074,32.0063158 C72.5980766,31.3768421 72.0706407,30.9410526 72.0706407,29.2947368 L72.0706407,21.2084211 C72.0706407,13.9452632 69.4334613,10.8463158 62.4808972,10.8463158 C59.9396151,10.8463158 56.9188459,11.2821053 54.857051,12.6378947 C51.9321792,14.5263158 54.4734613,18.7389474 57.6380766,17.0926316 C58.6929484,16.5115789 59.9396151,16.0273684 61.9534613,16.0273684 C64.878333,16.0273684 65.5975638,17.6252632 65.5975638,20.4336842 L65.5975638,21.3536842 L61.3301279,21.3536842 C55.192692,21.3536842 51.8362818,24.1621053 51.8362818,28.7136842 L51.8362818,29.0526316 C51.8362818,33.6042105 54.7132048,36.6063158 60.467051,36.6063158 C62.5767946,36.6063158 65.2139741,36.1705263 67.0360254,34.5726316 C67.3237177,34.96 67.61141,35.2989474 67.9949997,35.5894737 C68.618333,36.0736842 69.6732048,36.6063158 70.9678202,36.6063158 C72.9337177,36.6063158 74.228333,35.8315789 74.228333,33.9431579 Z M65.5975638,28.1810526 C65.5975638,30.7473684 64.0632048,31.9578947 61.8575638,31.9578947 C59.3642305,31.9578947 58.26141,30.9410526 58.26141,29.1494737 L58.26141,28.8105263 C58.26141,27.2126316 59.268333,26.0505263 62.0973074,26.0505263 L65.5975638,26.0505263 L65.5975638,28.1810526 Z M100.198419,34.9431579 C100.198419,34.0231579 99.814829,33.3936842 99.3353418,33.0063158 C98.5681623,32.3768421 98.0886751,31.9410526 98.0886751,30.2947368 L98.0886751,5.50315789 C98.0886751,3.71157895 96.6022649,2.25894737 94.8281623,2.25894737 C93.0540597,2.25894737 91.5676495,3.71157895 91.5676495,5.50315789 L91.6155982,13.3473684 C90.2730341,12.4757895 88.4030341,11.8463158 86.5330341,11.8463158 C79.9640597,11.8463158 77.7584187,16.2042105 77.7584187,23.3221053 L77.7584187,27.2442105 C77.7584187,33.9747368 80.7312392,37.6063158 87.0125213,37.6063158 C89.1222649,37.6063158 91.471752,36.88 93.0540597,35.6694737 C93.341752,36.0084211 93.6294443,36.2989474 93.9650854,36.5410526 C94.876111,37.2673684 95.9789315,37.6063158 96.9858546,37.6063158 C98.8558546,37.6063158 100.198419,36.8315789 100.198419,34.9431579 Z M91.6155982,30.7789474 C90.5607264,31.6021053 89.266111,32.0863158 88.1153418,32.0863158 C85.3343161,32.0863158 84.2314956,30.6336842 84.2314956,27.7284211 L84.2314956,22.0631579 C84.2314956,19.0610526 85.2863674,17.3663158 88.0673931,17.3663158 C89.2181623,17.3663158 90.6086751,17.9473684 91.6155982,18.8673684 L91.6155982,30.7789474 Z M125.003889,15.2526316 C125.914915,12.6378947 124.044915,10.8463158 122.031068,10.8463158 C120.832351,10.8463158 119.585684,11.5242105 119.058248,13.0736842 L114.646966,27.2126316 C112.729017,21.8378947 111.098761,16.6084211 109.99594,13.0736842 C109.564402,11.5726316 108.461581,10.8463158 107.262863,10.8463158 C105.392863,10.8463158 103.474915,12.3957895 104.194145,14.8168421 C105.680556,19.7073684 108.797222,28.2778947 111.626197,35.2989474 C109.852094,38.2042105 107.934145,38.7368421 105.968248,38.8821053 C104.002351,39.0273684 103.091325,40.5284211 103.091325,42.0294737 C103.091325,43.6757895 104.38594,45.3705263 106.687479,45.1768421 C112.824915,44.6442105 116.085427,40.6736842 118.914402,32.7326316 L125.003889,15.2526316 Z" id="Ready96" fill="#F7700F"></path>
                <path d="M177.752265,25.3726316 C177.752265,18.0610526 172.621753,14.5747368 166.915855,14.5747368 C166.00483,14.5747368 165.045855,14.7684211 164.13483,15.1073684 C165.717137,11.6694737 168.210471,8.52210526 170.46406,6.19789474 C171.183291,5.47157895 171.470983,4.69684211 171.470983,3.92210526 C171.470983,2.17894737 170.128419,0.629473684 168.162522,0.629473684 C167.395342,0.629473684 166.532265,0.92 165.813035,1.64631579 C160.490727,7.16631579 155.168419,15.2526316 155.168419,23.4357895 C155.168419,30.6021053 159.004317,36.7515789 166.292522,36.7515789 C172.957394,36.7515789 177.752265,32.3936842 177.752265,25.3726316 Z M171.135342,25.5663158 C171.135342,28.6168421 169.696881,30.6989474 166.388419,30.6989474 C164.230727,30.6989474 161.785342,28.8105263 161.785342,23.4357895 C161.785342,22.9515789 161.833291,22.3221053 161.929189,21.7894737 C162.840214,21.0631579 164.326624,20.3368421 166.244573,20.3368421 C169.505086,20.3368421 171.135342,22.4673684 171.135342,25.5663158 Z M152.39859,13.9452632 C152.39859,6.73052632 148.562693,0.629473684 141.322436,0.629473684 C134.609616,0.629473684 129.814744,4.93894737 129.814744,11.96 C129.814744,19.2715789 134.945257,22.7578947 140.651154,22.7578947 C141.56218,22.7578947 142.569103,22.6126316 143.480128,22.2252632 C141.849872,25.6631579 139.404487,28.8589474 137.102949,31.1347368 C136.383718,31.9094737 136.096026,32.6842105 136.096026,33.4105263 C136.096026,35.2021053 137.43859,36.7515789 139.404487,36.7515789 C140.171667,36.7515789 141.034744,36.4610526 141.753975,35.7347368 C147.076282,30.2147368 152.39859,22.08 152.39859,13.9452632 Z M145.781667,13.9452632 C145.781667,14.4294737 145.733718,15.0589474 145.637821,15.5915789 C144.726795,16.2694737 143.240385,16.9957895 141.322436,16.9957895 C138.061923,16.9957895 136.431667,14.8652632 136.431667,11.8147368 C136.431667,8.71578947 137.918077,6.63368421 141.226539,6.63368421 C143.336282,6.63368421 145.781667,8.52210526 145.781667,13.9452632 Z" id="Combined-Shape" fill="#FFBB00"></path>
            </g>
        </g>
    </g>
</svg>