<?xml version="1.0" encoding="UTF-8" standalone="no"?>
<svg width="135px" height="35px" viewBox="0 0 135 35" version="1.1" xmlns="http://www.w3.org/2000/svg" xmlns:xlink="http://www.w3.org/1999/xlink">
    <!-- Generator: Sketch 41.2 (35397) - http://www.bohemiancoding.com/sketch -->
    <title>city72logo-mobile</title>
    <desc>Created with Sketch.</desc>
    <defs></defs>
    <g id="Page-1" stroke="none" stroke-width="1" fill="none" fill-rule="evenodd">
        <g id="logos" transform="translate(-61.000000, -120.000000)" fill="#C6C6C6">
            <g id="city72logo-mobile" transform="translate(61.000000, 120.000000)">
                <path d="M17.9949109,24.3894737 C16.7584805,21.6263158 15.3402221,18.9 13.7765012,16.2105263 C16.4311901,15.1052632 17.9585453,12.7842105 17.9585453,9.72631579 L17.9585453,8.28947368 C17.9585453,3.5 15.1220284,0.773684211 9.52172594,0.773684211 L2.64862741,0.773684211 C1.26673458,0.773684211 0.175766564,1.91578947 0.175766564,3.31578947 L0.175766564,25.4210526 C0.175766564,26.8210526 1.26673458,27.9631579 2.64862741,27.9631579 C4.06688584,27.9631579 5.15785386,26.8210526 5.15785386,25.4210526 L5.15785386,17.1684211 L8.53985472,17.1684211 C10.3581348,20.2263158 12.0309524,23.3210526 13.4128452,26.4157895 C13.9583292,27.5947368 14.7583724,27.9631579 15.5947813,27.9631579 C17.2312333,27.9631579 18.9040509,26.3789474 17.9949109,24.3894737 Z M12.9400924,9.72631579 C12.9400924,11.6421053 11.340006,12.5631579 9.26716674,12.5631579 L5.15785386,12.5631579 L5.15785386,5.52631579 L9.41262914,5.52631579 C11.703662,5.52631579 12.9400924,6.48421053 12.9400924,8.28947368 L12.9400924,9.72631579 Z M36.7458186,17.8315789 L36.7458186,16.2473684 C36.7458186,11.9736842 34.6729793,8.25263158 29.145408,8.25263158 C23.8360303,8.25263158 21.4722663,12.0473684 21.4722663,16.3578947 L21.4722663,19.7842105 C21.4722663,24.0947368 23.4723743,27.8526316 29.1090424,27.8526316 C30.8545913,27.8526316 32.8183337,27.5947368 34.8184417,26.6736842 C35.7275817,26.2684211 36.163969,25.3473684 35.8366785,24.2421053 C35.5457537,23.1736842 34.4547857,22.5842105 33.4729145,22.9894737 C32.2001185,23.5052632 31.2182473,23.8 29.3999672,23.8 C27.3634936,23.8 26.3816224,22.5105263 26.3816224,20.3 L26.3816224,19.6 L35.0730009,19.6 C35.982141,19.6 36.7458186,18.8263158 36.7458186,17.8315789 Z M32.0182905,15.4 L32.0182905,15.8789474 L26.3816224,15.8789474 L26.3816224,15.4 C26.3816224,13.3 27.327128,12.1210526 29.2545048,12.1210526 C31.1818817,12.1210526 32.0182905,13.3 32.0182905,15.4 Z M56.2967694,25.8263158 C56.2967694,25.1263158 55.969479,24.6842105 55.605823,24.3526316 C55.060339,23.8736842 54.6603174,23.5421053 54.6603174,22.2894737 L54.6603174,16.1368421 C54.6603174,10.6105263 52.6602094,8.25263158 47.3871973,8.25263158 C45.4598204,8.25263158 43.1687876,8.58421053 41.6050668,9.61578947 C39.3867651,11.0526316 41.314142,14.2578947 43.7142716,13.0052632 C44.5143148,12.5631579 45.4598204,12.1947368 46.9871757,12.1947368 C49.2054773,12.1947368 49.7509613,13.4105263 49.7509613,15.5473684 L49.7509613,16.2473684 L46.5144229,16.2473684 C41.859626,16.2473684 39.3140339,18.3842105 39.3140339,21.8473684 L39.3140339,22.1052632 C39.3140339,25.5684211 41.49597,27.8526316 45.859842,27.8526316 C47.4599285,27.8526316 49.4600365,27.5210526 50.8419293,26.3052632 C51.0601229,26.6 51.2783166,26.8578947 51.5692414,27.0789474 C52.0419942,27.4473684 52.8420374,27.8526316 53.8239086,27.8526316 C55.3148982,27.8526316 56.2967694,27.2631579 56.2967694,25.8263158 Z M49.7509613,21.4421053 C49.7509613,23.3947368 48.5872621,24.3157895 46.9144445,24.3157895 C45.0234332,24.3157895 44.1870244,23.5421053 44.1870244,22.1789474 L44.1870244,21.9210526 C44.1870244,20.7052632 44.950702,19.8210526 47.0962725,19.8210526 L49.7509613,19.8210526 L49.7509613,21.4421053 Z M75.9931827,26.5871854 C75.9931827,25.8871854 75.7022579,25.408238 75.3386019,25.1135011 C74.7567523,24.6345538 74.3930963,24.3029748 74.3930963,23.0503432 L74.3930963,4.18718535 C74.3930963,2.82402746 73.2657627,1.7187643 71.9202355,1.7187643 C70.5747082,1.7187643 69.4473746,2.82402746 69.4473746,4.18718535 L69.4837402,10.1556064 C68.4655034,9.49244851 67.047245,9.01350114 65.6289865,9.01350114 C60.6468992,9.01350114 58.9740816,12.3292906 58.9740816,17.7450801 L58.9740816,20.7292906 C58.9740816,25.8503432 61.2287488,28.6135011 65.9926425,28.6135011 C67.592729,28.6135011 69.3746434,28.0608696 70.5747082,27.1398169 C70.7929018,27.3977117 71.0110954,27.6187643 71.2656546,27.8029748 C71.9566011,28.3556064 72.7930099,28.6135011 73.5566875,28.6135011 C74.9749459,28.6135011 75.9931827,28.0240275 75.9931827,26.5871854 Z M69.4837402,23.4187643 C68.683697,24.0450801 67.7018258,24.4135011 66.8290514,24.4135011 C64.7198465,24.4135011 63.8834377,23.308238 63.8834377,21.0977117 L63.8834377,16.7871854 C63.8834377,14.5029748 64.6834809,13.2135011 66.7926858,13.2135011 C67.6654602,13.2135011 68.7200626,13.6556064 69.4837402,14.3556064 L69.4837402,23.4187643 Z M94.8063203,11.6052632 C95.4972667,9.61578947 94.0790083,8.25263158 92.5516531,8.25263158 C91.642513,8.25263158 90.6970074,8.76842105 90.2969858,9.94736842 L86.9513505,20.7052632 C85.4967265,16.6157895 84.2602961,12.6368421 83.4238873,9.94736842 C83.0965969,8.80526316 82.2601881,8.25263158 81.351048,8.25263158 C79.9327896,8.25263158 78.4781656,9.43157895 79.0236496,11.2736842 C80.1509832,14.9947368 82.5147473,21.5157895 84.6603177,26.8578947 C83.3147905,29.0684211 81.8601665,29.4736842 80.3691768,29.5842105 C78.8781872,29.6947368 78.1872408,30.8368421 78.1872408,31.9789474 C78.1872408,33.2315789 79.169112,34.5210526 80.9146608,34.3736842 C85.5694577,33.9684211 88.0423186,30.9473684 90.187889,24.9052632 L94.8063203,11.6052632 Z" id="Ready96"></path>
                <path d="M134.812111,19.3052632 C134.812111,13.7421053 130.920992,11.0894737 126.593486,11.0894737 C125.902539,11.0894737 125.175227,11.2368421 124.484281,11.4947368 C125.684346,8.87894737 127.575357,6.48421053 129.28454,4.71578947 C129.830024,4.16315789 130.048218,3.57368421 130.048218,2.98421053 C130.048218,1.65789474 129.029981,0.478947368 127.538991,0.478947368 C126.957142,0.478947368 126.302561,0.7 125.757077,1.25263158 C121.720495,5.45263158 117.683913,11.6052632 117.683913,17.8315789 C117.683913,23.2842105 120.593162,27.9631579 126.120733,27.9631579 C131.175551,27.9631579 134.812111,24.6473684 134.812111,19.3052632 Z M129.793659,19.4526316 C129.793659,21.7736842 128.702691,23.3578947 126.193464,23.3578947 C124.557012,23.3578947 122.702366,21.9210526 122.702366,17.8315789 C122.702366,17.4631579 122.738732,16.9842105 122.811463,16.5789474 C123.50241,16.0263158 124.629743,15.4736842 126.084367,15.4736842 C128.557228,15.4736842 129.793659,17.0947368 129.793659,19.4526316 Z M115.5832,10.6105263 C115.5832,5.12105263 112.673952,0.478947368 107.182747,0.478947368 C102.091562,0.478947368 98.4550024,3.75789474 98.4550024,9.1 C98.4550024,14.6631579 102.346122,17.3157895 106.673628,17.3157895 C107.364575,17.3157895 108.128252,17.2052632 108.819199,16.9105263 C107.582768,19.5263158 105.728123,21.9578947 103.982574,23.6894737 C103.43709,24.2789474 103.218896,24.8684211 103.218896,25.4210526 C103.218896,26.7842105 104.237133,27.9631579 105.728123,27.9631579 C106.309972,27.9631579 106.964553,27.7421053 107.510037,27.1894737 C111.546619,22.9894737 115.5832,16.8 115.5832,10.6105263 Z M110.564747,10.6105263 C110.564747,10.9789474 110.528382,11.4578947 110.455651,11.8631579 C109.764704,12.3789474 108.637371,12.9315789 107.182747,12.9315789 C104.709886,12.9315789 103.473455,11.3105263 103.473455,8.98947368 C103.473455,6.63157895 104.600789,5.04736842 107.110015,5.04736842 C108.710102,5.04736842 110.564747,6.48421053 110.564747,10.6105263 Z" id="Combined-Shape"></path>
            </g>
        </g>
    </g>
</svg>